<?xml version="1.0" encoding="UTF-8" standalone="no"?><!DOCTYPE svg PUBLIC "-//W3C//DTD SVG 1.1//EN" "http://www.w3.org/Graphics/SVG/1.1/DTD/svg11.dtd"><svg width="100%" height="100%" viewBox="0 0 3600 4800" version="1.1" xmlns="http://www.w3.org/2000/svg" xmlns:xlink="http://www.w3.org/1999/xlink" xml:space="preserve" xmlns:serif="http://www.serif.com/" style="fill-rule:evenodd;clip-rule:evenodd;stroke-linejoin:round;stroke-miterlimit:2;"><path d="M776.629,2361.55l148.956,93.82l0,187.641l-148.956,93.821l-148.955,-93.821l0,-187.641l148.955,-93.82Z" style="fill:#5b6874;"/><path d="M776.629,2361.55l148.956,93.82l0,187.641l-148.956,93.821l-148.955,-93.821l0,-187.641l148.955,-93.82Zm-119.788,109.92l0,155.442l119.788,75.45l119.789,-75.45l0,-155.442l-119.789,-75.45l-119.788,75.45Z" style="fill:#93928f;"/><path d="M776.629,2950.03l148.956,93.821l0,187.641l-148.956,93.82l-148.955,-93.82l0,-187.641l148.955,-93.821Z" style="fill:#5b6874;"/><path d="M776.629,2950.03l148.956,93.821l0,187.641l-148.956,93.82l-148.955,-93.82l0,-187.641l148.955,-93.821Zm-119.788,109.92l0,155.443l119.788,75.449l119.789,-75.449l0,-155.443l-119.789,-75.45l-119.788,75.45Z" style="fill:#93928f;"/><path d="M933.548,295.314l148.955,93.82l0,187.641l-148.955,93.82l-148.955,-93.82l0,-187.641l148.955,-93.82Z" style="fill:#5b6874;"/><path d="M933.548,295.314l148.955,93.82l0,187.641l-148.955,93.82l-148.955,-93.82l0,-187.641l148.955,-93.82Zm-119.789,109.919l0,155.443l119.789,75.449l119.788,-75.449l0,-155.443l-119.788,-75.449l-119.789,75.449Z" style="fill:#93928f;"/><path d="M933.548,2656.86l148.955,93.82l0,187.641l-148.955,93.821l-148.955,-93.821l0,-187.641l148.955,-93.82Z" style="fill:#5b6874;"/><path d="M933.548,2656.86l148.955,93.82l0,187.641l-148.955,93.821l-148.955,-93.821l0,-187.641l148.955,-93.82Zm-119.789,109.919l0,155.443l119.789,75.45l119.788,-75.45l0,-155.443l-119.788,-75.449l-119.789,75.449Z" style="fill:#93928f;"/><path d="M933.548,1474.68l148.955,93.82l0,187.641l-148.955,93.821l-148.955,-93.821l0,-187.641l148.955,-93.82Z" style="fill:#5b6874;"/><path d="M933.548,1474.68l148.955,93.82l0,187.641l-148.955,93.821l-148.955,-93.821l0,-187.641l148.955,-93.82Zm-119.789,109.919l0,155.443l119.789,75.45l119.788,-75.45l0,-155.443l-119.788,-75.449l-119.789,75.449Z" style="fill:#93928f;"/><path d="M933.548,3836.23l148.955,93.82l0,187.641l-148.955,93.821l-148.955,-93.821l0,-187.641l148.955,-93.82Z" style="fill:#5b6874;"/><path d="M933.548,3836.23l148.955,93.82l0,187.641l-148.955,93.821l-148.955,-93.821l0,-187.641l148.955,-93.82Zm-119.789,109.92l0,155.442l119.789,75.45l119.788,-75.45l0,-155.442l-119.788,-75.45l-119.789,75.45Z" style="fill:#93928f;"/><path d="M933.548,883.802l148.955,93.821l0,187.64l-148.955,93.821l-148.955,-93.821l0,-187.64l148.955,-93.821Z" style="fill:#5b6874;"/><path d="M933.548,883.802l148.955,93.821l0,187.64l-148.955,93.821l-148.955,-93.821l0,-187.64l148.955,-93.821Zm-119.789,109.92l0,155.442l119.789,75.45l119.788,-75.45l0,-155.442l-119.788,-75.45l-119.789,75.45Z" style="fill:#93928f;"/><path d="M933.548,2063.17l148.955,93.821l0,187.641l-148.955,93.82l-148.955,-93.82l0,-187.641l148.955,-93.821Z" style="fill:#5b6874;"/><path d="M933.548,2063.17l148.955,93.821l0,187.641l-148.955,93.82l-148.955,-93.82l0,-187.641l148.955,-93.821Zm-119.789,109.92l0,155.442l119.789,75.45l119.788,-75.45l0,-155.442l-119.788,-75.45l-119.789,75.45Z" style="fill:#93928f;"/><path d="M462.792,0l148.956,93.82l0,187.641l-148.956,93.821l-148.955,-93.821l0,-187.641l148.955,-93.82Z" style="fill:#5b6874;"/><path d="M462.792,0l148.956,93.82l0,187.641l-148.956,93.821l-148.955,-93.821l0,-187.641l148.955,-93.82Zm-119.788,109.92l0,155.442l119.788,75.45l119.789,-75.45l0,-155.442l-119.789,-75.45l-119.788,75.45Z" style="fill:#93928f;"/><path d="M462.792,2361.55l148.956,93.82l0,187.641l-148.956,93.821l-148.955,-93.821l0,-187.641l148.955,-93.82Z" style="fill:#5b6874;"/><path d="M462.792,2361.55l148.956,93.82l0,187.641l-148.956,93.821l-148.955,-93.821l0,-187.641l148.955,-93.82Zm-119.788,109.92l0,155.442l119.788,75.45l119.789,-75.45l0,-155.442l-119.789,-75.45l-119.788,75.45Z" style="fill:#93928f;"/><path d="M462.792,1179.37l148.956,93.82l0,187.641l-148.956,93.821l-148.955,-93.821l0,-187.641l148.955,-93.82Z" style="fill:#5b6874;"/><path d="M462.792,1179.37l148.956,93.82l0,187.641l-148.956,93.821l-148.955,-93.821l0,-187.641l148.955,-93.82Zm-119.788,109.92l0,155.442l119.788,75.45l119.789,-75.45l0,-155.442l-119.789,-75.45l-119.788,75.45Z" style="fill:#93928f;"/><path d="M462.792,588.488l148.956,93.821l0,187.641l-148.956,93.82l-148.955,-93.82l0,-187.641l148.955,-93.821Z" style="fill:#5b6874;"/><path d="M462.792,588.488l148.956,93.821l0,187.641l-148.956,93.82l-148.955,-93.82l0,-187.641l148.955,-93.821Zm-119.788,109.92l0,155.442l119.788,75.45l119.789,-75.45l0,-155.442l-119.789,-75.45l-119.788,75.45Z" style="fill:#93928f;"/><path d="M462.792,2950.03l148.956,93.821l0,187.641l-148.956,93.82l-148.955,-93.82l0,-187.641l148.955,-93.821Z" style="fill:#5b6874;"/><path d="M462.792,2950.03l148.956,93.821l0,187.641l-148.956,93.82l-148.955,-93.82l0,-187.641l148.955,-93.821Zm-119.788,109.92l0,155.443l119.788,75.449l119.789,-75.449l0,-155.443l-119.789,-75.45l-119.788,75.45Z" style="fill:#93928f;"/><path d="M462.792,1767.86l148.956,93.821l0,187.641l-148.956,93.82l-148.955,-93.82l0,-187.641l148.955,-93.821Z" style="fill:#5b6874;"/><path d="M462.792,1767.86l148.956,93.821l0,187.641l-148.956,93.82l-148.955,-93.82l0,-187.641l148.955,-93.821Zm-119.788,109.92l0,155.443l119.788,75.449l119.789,-75.449l0,-155.443l-119.789,-75.45l-119.788,75.45Z" style="fill:#93928f;"/><path d="M619.711,2656.86l148.955,93.82l0,187.641l-148.955,93.821l-148.955,-93.821l0,-187.641l148.955,-93.82Z" style="fill:#5b6874;"/><path d="M619.711,2656.86l148.955,93.82l0,187.641l-148.955,93.821l-148.955,-93.821l0,-187.641l148.955,-93.82Zm-119.789,109.919l0,155.443l119.789,75.45l119.788,-75.45l0,-155.443l-119.788,-75.449l-119.789,75.449Z" style="fill:#93928f;"/><path d="M619.711,1474.68l148.955,93.82l0,187.641l-148.955,93.821l-148.955,-93.821l0,-187.641l148.955,-93.82Z" style="fill:#5b6874;"/><path d="M619.711,1474.68l148.955,93.82l0,187.641l-148.955,93.821l-148.955,-93.821l0,-187.641l148.955,-93.82Zm-119.789,109.919l0,155.443l119.789,75.45l119.788,-75.45l0,-155.443l-119.788,-75.449l-119.789,75.449Z" style="fill:#93928f;"/><path d="M619.711,3245.35l148.955,93.821l0,187.641l-148.955,93.82l-148.955,-93.82l0,-187.641l148.955,-93.821Z" style="fill:#5b6874;"/><path d="M619.711,3245.35l148.955,93.821l0,187.641l-148.955,93.82l-148.955,-93.82l0,-187.641l148.955,-93.821Zm-119.789,109.92l0,155.442l119.789,75.45l119.788,-75.45l0,-155.442l-119.788,-75.45l-119.789,75.45Z" style="fill:#93928f;"/><path d="M619.711,2063.17l148.955,93.821l0,187.641l-148.955,93.82l-148.955,-93.82l0,-187.641l148.955,-93.821Z" style="fill:#5b6874;"/><path d="M619.711,2063.17l148.955,93.821l0,187.641l-148.955,93.82l-148.955,-93.82l0,-187.641l148.955,-93.821Zm-119.789,109.92l0,155.442l119.789,75.45l119.788,-75.45l0,-155.442l-119.788,-75.45l-119.789,75.45Z" style="fill:#93928f;"/><path d="M619.711,4424.72l148.955,93.821l0,187.641l-148.955,93.82l-148.955,-93.82l0,-187.641l148.955,-93.821Z" style="fill:#5b6874;"/><path d="M619.711,4424.72l148.955,93.821l0,187.641l-148.955,93.82l-148.955,-93.82l0,-187.641l148.955,-93.821Zm-119.789,109.92l0,155.442l119.789,75.45l119.788,-75.45l0,-155.442l-119.788,-75.45l-119.789,75.45Z" style="fill:#93928f;"/><path d="M148.955,2361.55l148.956,93.82l0,187.641l-148.956,93.821l-148.955,-93.821l0,-187.641l148.955,-93.82Z" style="fill:#5b6874;"/><path d="M148.955,2361.55l148.956,93.82l0,187.641l-148.956,93.821l-148.955,-93.821l0,-187.641l148.955,-93.82Zm-119.788,109.92l0,155.442l119.788,75.45l119.789,-75.45l0,-155.442l-119.789,-75.45l-119.788,75.45Z" style="fill:#93928f;"/><path d="M148.955,1179.37l148.956,93.82l0,187.641l-148.956,93.821l-148.955,-93.821l0,-187.641l148.955,-93.82Z" style="fill:#5b6874;"/><path d="M148.955,1179.37l148.956,93.82l0,187.641l-148.956,93.821l-148.955,-93.821l0,-187.641l148.955,-93.82Zm-119.788,109.92l0,155.442l119.788,75.45l119.789,-75.45l0,-155.442l-119.789,-75.45l-119.788,75.45Z" style="fill:#93928f;"/><path d="M148.955,3540.92l148.956,93.821l0,187.64l-148.956,93.821l-148.955,-93.821l0,-187.64l148.955,-93.821Z" style="fill:#5b6874;"/><path d="M148.955,3540.92l148.956,93.821l0,187.64l-148.956,93.821l-148.955,-93.821l0,-187.64l148.955,-93.821Zm-119.788,109.92l0,155.442l119.788,75.45l119.789,-75.45l0,-155.442l-119.789,-75.45l-119.788,75.45Z" style="fill:#93928f;"/><path d="M148.955,588.488l148.956,93.821l0,187.641l-148.956,93.82l-148.955,-93.82l0,-187.641l148.955,-93.821Z" style="fill:#5b6874;"/><path d="M148.955,588.488l148.956,93.821l0,187.641l-148.956,93.82l-148.955,-93.82l0,-187.641l148.955,-93.821Zm-119.788,109.92l0,155.442l119.788,75.45l119.789,-75.45l0,-155.442l-119.789,-75.45l-119.788,75.45Z" style="fill:#93928f;"/><path d="M148.955,2950.03l148.956,93.821l0,187.641l-148.956,93.82l-148.955,-93.82l0,-187.641l148.955,-93.821Z" style="fill:#5b6874;"/><path d="M148.955,2950.03l148.956,93.821l0,187.641l-148.956,93.82l-148.955,-93.82l0,-187.641l148.955,-93.821Zm-119.788,109.92l0,155.443l119.788,75.449l119.789,-75.449l0,-155.443l-119.789,-75.45l-119.788,75.45Z" style="fill:#93928f;"/><path d="M148.955,1767.86l148.956,93.821l0,187.641l-148.956,93.82l-148.955,-93.82l0,-187.641l148.955,-93.821Z" style="fill:#5b6874;"/><path d="M148.955,1767.86l148.956,93.821l0,187.641l-148.956,93.82l-148.955,-93.82l0,-187.641l148.955,-93.821Zm-119.788,109.92l0,155.443l119.788,75.449l119.789,-75.449l0,-155.443l-119.789,-75.45l-119.788,75.45Z" style="fill:#93928f;"/><path d="M148.955,4129.4l148.956,93.82l0,187.641l-148.956,93.82l-148.955,-93.82l0,-187.641l148.955,-93.82Z" style="fill:#5b6874;"/><path d="M148.955,4129.4l148.956,93.82l0,187.641l-148.956,93.82l-148.955,-93.82l0,-187.641l148.955,-93.82Zm-119.788,109.919l0,155.443l119.788,75.449l119.789,-75.449l0,-155.443l-119.789,-75.449l-119.788,75.449Z" style="fill:#93928f;"/><path d="M305.874,2656.86l148.955,93.82l0,187.641l-148.955,93.821l-148.955,-93.821l0,-187.641l148.955,-93.82Z" style="fill:#5b6874;"/><path d="M305.874,2656.86l148.955,93.82l0,187.641l-148.955,93.821l-148.955,-93.821l0,-187.641l148.955,-93.82Zm-119.789,109.919l0,155.443l119.789,75.45l119.788,-75.45l0,-155.443l-119.788,-75.449l-119.789,75.449Z" style="fill:#93928f;"/><path d="M305.874,1474.68l148.955,93.82l0,187.641l-148.955,93.821l-148.955,-93.821l0,-187.641l148.955,-93.82Z" style="fill:#5b6874;"/><path d="M305.874,1474.68l148.955,93.82l0,187.641l-148.955,93.821l-148.955,-93.821l0,-187.641l148.955,-93.82Zm-119.789,109.919l0,155.443l119.789,75.45l119.788,-75.45l0,-155.443l-119.788,-75.449l-119.789,75.449Z" style="fill:#93928f;"/><path d="M305.874,3836.23l148.955,93.82l0,187.641l-148.955,93.821l-148.955,-93.821l0,-187.641l148.955,-93.82Z" style="fill:#5b6874;"/><path d="M305.874,3836.23l148.955,93.82l0,187.641l-148.955,93.821l-148.955,-93.821l0,-187.641l148.955,-93.82Zm-119.789,109.92l0,155.442l119.789,75.45l119.788,-75.45l0,-155.442l-119.788,-75.45l-119.789,75.45Z" style="fill:#93928f;"/><path d="M305.874,2063.17l148.955,93.821l0,187.641l-148.955,93.82l-148.955,-93.82l0,-187.641l148.955,-93.821Z" style="fill:#5b6874;"/><path d="M305.874,2063.17l148.955,93.821l0,187.641l-148.955,93.82l-148.955,-93.82l0,-187.641l148.955,-93.821Zm-119.789,109.92l0,155.442l119.789,75.45l119.788,-75.45l0,-155.442l-119.788,-75.45l-119.789,75.45Z" style="fill:#93928f;"/><path d="M3294.13,2361.55l148.955,93.82l0,187.641l-148.955,93.821l-148.955,-93.821l0,-187.641l148.955,-93.82Z" style="fill:#5b6874;"/><path d="M3294.13,2361.55l148.955,93.82l0,187.641l-148.955,93.821l-148.955,-93.821l0,-187.641l148.955,-93.82Zm-119.788,109.92l0,155.442l119.788,75.45l119.789,-75.45l0,-155.442l-119.789,-75.45l-119.788,75.45Z" style="fill:#93928f;"/><path d="M3294.13,1179.37l148.955,93.82l0,187.641l-148.955,93.821l-148.955,-93.821l0,-187.641l148.955,-93.82Z" style="fill:#5b6874;"/><path d="M3294.13,1179.37l148.955,93.82l0,187.641l-148.955,93.821l-148.955,-93.821l0,-187.641l148.955,-93.82Zm-119.788,109.92l0,155.442l119.788,75.45l119.789,-75.45l0,-155.442l-119.789,-75.45l-119.788,75.45Z" style="fill:#93928f;"/><path d="M3294.13,3540.92l148.955,93.821l0,187.64l-148.955,93.821l-148.955,-93.821l0,-187.64l148.955,-93.821Z" style="fill:#5b6874;"/><path d="M3294.13,3540.92l148.955,93.821l0,187.64l-148.955,93.821l-148.955,-93.821l0,-187.64l148.955,-93.821Zm-119.788,109.92l0,155.442l119.788,75.45l119.789,-75.45l0,-155.442l-119.789,-75.45l-119.788,75.45Z" style="fill:#93928f;"/><path d="M3294.13,588.488l148.955,93.821l0,187.641l-148.955,93.82l-148.955,-93.82l0,-187.641l148.955,-93.821Z" style="fill:#5b6874;"/><path d="M3294.13,588.488l148.955,93.821l0,187.641l-148.955,93.82l-148.955,-93.82l0,-187.641l148.955,-93.821Zm-119.788,109.92l0,155.442l119.788,75.45l119.789,-75.45l0,-155.442l-119.789,-75.45l-119.788,75.45Z" style="fill:#93928f;"/><path d="M3294.13,1767.86l148.955,93.821l0,187.641l-148.955,93.82l-148.955,-93.82l0,-187.641l148.955,-93.821Z" style="fill:#5b6874;"/><path d="M3294.13,1767.86l148.955,93.821l0,187.641l-148.955,93.82l-148.955,-93.82l0,-187.641l148.955,-93.821Zm-119.788,109.92l0,155.443l119.788,75.449l119.789,-75.449l0,-155.443l-119.789,-75.45l-119.788,75.45Z" style="fill:#93928f;"/><path d="M3451.05,2656.86l148.955,93.82l0,187.641l-148.955,93.821l-148.956,-93.821l0,-187.641l148.956,-93.82Z" style="fill:#5b6874;"/><path d="M3451.05,2656.86l148.955,93.82l0,187.641l-148.955,93.821l-148.956,-93.821l0,-187.641l148.956,-93.82Zm-119.789,109.919l0,155.443l119.789,75.45l119.788,-75.45l0,-155.443l-119.788,-75.449l-119.789,75.449Z" style="fill:#93928f;"/><path d="M3451.05,1474.68l148.955,93.82l0,187.641l-148.955,93.821l-148.956,-93.821l0,-187.641l148.956,-93.82Z" style="fill:#5b6874;"/><path d="M3451.05,1474.68l148.955,93.82l0,187.641l-148.955,93.821l-148.956,-93.821l0,-187.641l148.956,-93.82Zm-119.789,109.919l0,155.443l119.789,75.45l119.788,-75.45l0,-155.443l-119.788,-75.449l-119.789,75.449Z" style="fill:#93928f;"/><path d="M3451.05,883.802l148.955,93.821l0,187.64l-148.955,93.821l-148.956,-93.821l0,-187.64l148.956,-93.821Z" style="fill:#5b6874;"/><path d="M3451.05,883.802l148.955,93.821l0,187.64l-148.955,93.821l-148.956,-93.821l0,-187.64l148.956,-93.821Zm-119.789,109.92l0,155.442l119.789,75.45l119.788,-75.45l0,-155.442l-119.788,-75.45l-119.789,75.45Z" style="fill:#93928f;"/><path d="M3451.05,3245.35l148.955,93.821l0,187.641l-148.955,93.82l-148.956,-93.82l0,-187.641l148.956,-93.821Z" style="fill:#5b6874;"/><path d="M3451.05,3245.35l148.955,93.821l0,187.641l-148.955,93.82l-148.956,-93.82l0,-187.641l148.956,-93.821Zm-119.789,109.92l0,155.442l119.789,75.45l119.788,-75.45l0,-155.442l-119.788,-75.45l-119.789,75.45Z" style="fill:#93928f;"/><path d="M2980.29,0l148.955,93.82l0,187.641l-148.955,93.821l-148.955,-93.821l0,-187.641l148.955,-93.82Z" style="fill:#5b6874;"/><path d="M2980.29,0l148.955,93.82l0,187.641l-148.955,93.821l-148.955,-93.821l0,-187.641l148.955,-93.82Zm-119.788,109.92l0,155.442l119.788,75.45l119.789,-75.45l0,-155.442l-119.789,-75.45l-119.788,75.45Z" style="fill:#93928f;"/><path d="M2980.29,2361.55l148.955,93.82l0,187.641l-148.955,93.821l-148.955,-93.821l0,-187.641l148.955,-93.82Z" style="fill:#5b6874;"/><path d="M2980.29,2361.55l148.955,93.82l0,187.641l-148.955,93.821l-148.955,-93.821l0,-187.641l148.955,-93.82Zm-119.788,109.92l0,155.442l119.788,75.45l119.789,-75.45l0,-155.442l-119.789,-75.45l-119.788,75.45Z" style="fill:#93928f;"/><path d="M2980.29,1179.37l148.955,93.82l0,187.641l-148.955,93.821l-148.955,-93.821l0,-187.641l148.955,-93.82Z" style="fill:#5b6874;"/><path d="M2980.29,1179.37l148.955,93.82l0,187.641l-148.955,93.821l-148.955,-93.821l0,-187.641l148.955,-93.82Zm-119.788,109.92l0,155.442l119.788,75.45l119.789,-75.45l0,-155.442l-119.789,-75.45l-119.788,75.45Z" style="fill:#93928f;"/><path d="M2980.29,588.488l148.955,93.821l0,187.641l-148.955,93.82l-148.955,-93.82l0,-187.641l148.955,-93.821Z" style="fill:#5b6874;"/><path d="M2980.29,588.488l148.955,93.821l0,187.641l-148.955,93.82l-148.955,-93.82l0,-187.641l148.955,-93.821Zm-119.788,109.92l0,155.442l119.788,75.45l119.789,-75.45l0,-155.442l-119.789,-75.45l-119.788,75.45Z" style="fill:#93928f;"/><path d="M2980.29,2950.03l148.955,93.821l0,187.641l-148.955,93.82l-148.955,-93.82l0,-187.641l148.955,-93.821Z" style="fill:#5b6874;"/><path d="M2980.29,2950.03l148.955,93.821l0,187.641l-148.955,93.82l-148.955,-93.82l0,-187.641l148.955,-93.821Zm-119.788,109.92l0,155.443l119.788,75.449l119.789,-75.449l0,-155.443l-119.789,-75.45l-119.788,75.45Z" style="fill:#93928f;"/><path d="M2980.29,1767.86l148.955,93.821l0,187.641l-148.955,93.82l-148.955,-93.82l0,-187.641l148.955,-93.821Z" style="fill:#5b6874;"/><path d="M2980.29,1767.86l148.955,93.821l0,187.641l-148.955,93.82l-148.955,-93.82l0,-187.641l148.955,-93.821Zm-119.788,109.92l0,155.443l119.788,75.449l119.789,-75.449l0,-155.443l-119.789,-75.45l-119.788,75.45Z" style="fill:#93928f;"/><path d="M3137.21,295.314l148.955,93.82l0,187.641l-148.955,93.82l-148.956,-93.82l0,-187.641l148.956,-93.82Z" style="fill:#5b6874;"/><path d="M3137.21,295.314l148.955,93.82l0,187.641l-148.955,93.82l-148.956,-93.82l0,-187.641l148.956,-93.82Zm-119.789,109.919l0,155.443l119.789,75.449l119.788,-75.449l0,-155.443l-119.788,-75.449l-119.789,75.449Z" style="fill:#93928f;"/><path d="M3137.21,2656.86l148.955,93.82l0,187.641l-148.955,93.821l-148.956,-93.821l0,-187.641l148.956,-93.82Z" style="fill:#5b6874;"/><path d="M3137.21,2656.86l148.955,93.82l0,187.641l-148.955,93.821l-148.956,-93.821l0,-187.641l148.956,-93.82Zm-119.789,109.919l0,155.443l119.789,75.45l119.788,-75.45l0,-155.443l-119.788,-75.449l-119.789,75.449Z" style="fill:#93928f;"/><path d="M3137.21,3836.23l148.955,93.82l0,187.641l-148.955,93.821l-148.956,-93.821l0,-187.641l148.956,-93.82Z" style="fill:#5b6874;"/><path d="M3137.21,3836.23l148.955,93.82l0,187.641l-148.955,93.821l-148.956,-93.821l0,-187.641l148.956,-93.82Zm-119.789,109.92l0,155.442l119.789,75.45l119.788,-75.45l0,-155.442l-119.788,-75.45l-119.789,75.45Z" style="fill:#93928f;"/><path d="M3137.21,883.802l148.955,93.821l0,187.64l-148.955,93.821l-148.956,-93.821l0,-187.64l148.956,-93.821Z" style="fill:#5b6874;"/><path d="M3137.21,883.802l148.955,93.821l0,187.64l-148.955,93.821l-148.956,-93.821l0,-187.64l148.956,-93.821Zm-119.789,109.92l0,155.442l119.789,75.45l119.788,-75.45l0,-155.442l-119.788,-75.45l-119.789,75.45Z" style="fill:#93928f;"/><path d="M3137.21,3245.35l148.955,93.821l0,187.641l-148.955,93.82l-148.956,-93.82l0,-187.641l148.956,-93.821Z" style="fill:#5b6874;"/><path d="M3137.21,3245.35l148.955,93.821l0,187.641l-148.955,93.82l-148.956,-93.82l0,-187.641l148.956,-93.821Zm-119.789,109.92l0,155.442l119.789,75.45l119.788,-75.45l0,-155.442l-119.788,-75.45l-119.789,75.45Z" style="fill:#93928f;"/><path d="M3137.21,2063.17l148.955,93.821l0,187.641l-148.955,93.82l-148.956,-93.82l0,-187.641l148.956,-93.821Z" style="fill:#5b6874;"/><path d="M3137.21,2063.17l148.955,93.821l0,187.641l-148.955,93.82l-148.956,-93.82l0,-187.641l148.956,-93.821Zm-119.789,109.92l0,155.442l119.789,75.45l119.788,-75.45l0,-155.442l-119.788,-75.45l-119.789,75.45Z" style="fill:#93928f;"/><path d="M3137.21,4424.72l148.955,93.821l0,187.641l-148.955,93.82l-148.956,-93.82l0,-187.641l148.956,-93.821Z" style="fill:#5b6874;"/><path d="M3137.21,4424.72l148.955,93.821l0,187.641l-148.955,93.82l-148.956,-93.82l0,-187.641l148.956,-93.821Zm-119.789,109.92l0,155.442l119.789,75.45l119.788,-75.45l0,-155.442l-119.788,-75.45l-119.789,75.45Z" style="fill:#93928f;"/><path d="M1720.41,1179.37l148.956,93.82l0,187.641l-148.956,93.821l-148.955,-93.821l0,-187.641l148.955,-93.82Z" style="fill:#5b6874;"/><path d="M1720.41,1179.37l148.956,93.82l0,187.641l-148.956,93.821l-148.955,-93.821l0,-187.641l148.955,-93.82Zm-119.788,109.92l0,155.442l119.788,75.45l119.789,-75.45l0,-155.442l-119.789,-75.45l-119.788,75.45Z" style="fill:#93928f;"/><path d="M1720.41,3540.92l148.956,93.821l0,187.64l-148.956,93.821l-148.955,-93.821l0,-187.64l148.955,-93.821Z" style="fill:#5b6874;"/><path d="M1720.41,3540.92l148.956,93.821l0,187.64l-148.956,93.821l-148.955,-93.821l0,-187.64l148.955,-93.821Zm-119.788,109.92l0,155.442l119.788,75.45l119.789,-75.45l0,-155.442l-119.789,-75.45l-119.788,75.45Z" style="fill:#93928f;"/><path d="M1720.41,588.488l148.956,93.821l0,187.641l-148.956,93.82l-148.955,-93.82l0,-187.641l148.955,-93.821Z" style="fill:#5b6874;"/><path d="M1720.41,588.488l148.956,93.821l0,187.641l-148.956,93.82l-148.955,-93.82l0,-187.641l148.955,-93.821Zm-119.788,109.92l0,155.442l119.788,75.45l119.789,-75.45l0,-155.442l-119.789,-75.45l-119.788,75.45Z" style="fill:#93928f;"/><path d="M1720.41,2950.03l148.956,93.821l0,187.641l-148.956,93.82l-148.955,-93.82l0,-187.641l148.955,-93.821Z" style="fill:#5b6874;"/><path d="M1720.41,2950.03l148.956,93.821l0,187.641l-148.956,93.82l-148.955,-93.82l0,-187.641l148.955,-93.821Zm-119.788,109.92l0,155.443l119.788,75.449l119.789,-75.449l0,-155.443l-119.789,-75.45l-119.788,75.45Z" style="fill:#93928f;"/><path d="M1720.41,1767.86l148.956,93.821l0,187.641l-148.956,93.82l-148.955,-93.82l0,-187.641l148.955,-93.821Z" style="fill:#5b6874;"/><path d="M1720.41,1767.86l148.956,93.821l0,187.641l-148.956,93.82l-148.955,-93.82l0,-187.641l148.955,-93.821Zm-119.788,109.92l0,155.443l119.788,75.449l119.789,-75.449l0,-155.443l-119.789,-75.45l-119.788,75.45Z" style="fill:#93928f;"/><path d="M1720.41,4129.4l148.956,93.82l0,187.641l-148.956,93.82l-148.955,-93.82l0,-187.641l148.955,-93.82Z" style="fill:#5b6874;"/><path d="M1720.41,4129.4l148.956,93.82l0,187.641l-148.956,93.82l-148.955,-93.82l0,-187.641l148.955,-93.82Zm-119.788,109.919l0,155.443l119.788,75.449l119.789,-75.449l0,-155.443l-119.789,-75.449l-119.788,75.449Z" style="fill:#93928f;"/><path d="M1877.33,295.314l148.955,93.82l0,187.641l-148.955,93.82l-148.955,-93.82l0,-187.641l148.955,-93.82Z" style="fill:#5b6874;"/><path d="M1877.33,295.314l148.955,93.82l0,187.641l-148.955,93.82l-148.955,-93.82l0,-187.641l148.955,-93.82Zm-119.789,109.919l0,155.443l119.789,75.449l119.788,-75.449l0,-155.443l-119.788,-75.449l-119.789,75.449Z" style="fill:#93928f;"/><path d="M1877.33,2656.86l148.955,93.82l0,187.641l-148.955,93.821l-148.955,-93.821l0,-187.641l148.955,-93.82Z" style="fill:#5b6874;"/><path d="M1877.33,2656.86l148.955,93.82l0,187.641l-148.955,93.821l-148.955,-93.821l0,-187.641l148.955,-93.82Zm-119.789,109.919l0,155.443l119.789,75.45l119.788,-75.45l0,-155.443l-119.788,-75.449l-119.789,75.449Z" style="fill:#93928f;"/><path d="M1877.33,1474.68l148.955,93.82l0,187.641l-148.955,93.821l-148.955,-93.821l0,-187.641l148.955,-93.82Z" style="fill:#5b6874;"/><path d="M1877.33,1474.68l148.955,93.82l0,187.641l-148.955,93.821l-148.955,-93.821l0,-187.641l148.955,-93.82Zm-119.789,109.919l0,155.443l119.789,75.45l119.788,-75.45l0,-155.443l-119.788,-75.449l-119.789,75.449Z" style="fill:#93928f;"/><path d="M1877.33,3836.23l148.955,93.82l0,187.641l-148.955,93.821l-148.955,-93.821l0,-187.641l148.955,-93.82Z" style="fill:#5b6874;"/><path d="M1877.33,3836.23l148.955,93.82l0,187.641l-148.955,93.821l-148.955,-93.821l0,-187.641l148.955,-93.82Zm-119.789,109.92l0,155.442l119.789,75.45l119.788,-75.45l0,-155.442l-119.788,-75.45l-119.789,75.45Z" style="fill:#93928f;"/><path d="M1877.33,3245.35l148.955,93.821l0,187.641l-148.955,93.82l-148.955,-93.82l0,-187.641l148.955,-93.821Z" style="fill:#5b6874;"/><path d="M1877.33,3245.35l148.955,93.821l0,187.641l-148.955,93.82l-148.955,-93.82l0,-187.641l148.955,-93.821Zm-119.789,109.92l0,155.442l119.789,75.45l119.788,-75.45l0,-155.442l-119.788,-75.45l-119.789,75.45Z" style="fill:#93928f;"/><path d="M1406.57,2361.55l148.956,93.82l0,187.641l-148.956,93.821l-148.955,-93.821l0,-187.641l148.955,-93.82Z" style="fill:#5b6874;"/><path d="M1406.57,2361.55l148.956,93.82l0,187.641l-148.956,93.821l-148.955,-93.821l0,-187.641l148.955,-93.82Zm-119.788,109.92l0,155.442l119.788,75.45l119.789,-75.45l0,-155.442l-119.789,-75.45l-119.788,75.45Z" style="fill:#93928f;"/><path d="M1406.57,1179.37l148.956,93.82l0,187.641l-148.956,93.821l-148.955,-93.821l0,-187.641l148.955,-93.82Z" style="fill:#5b6874;"/><path d="M1406.57,1179.37l148.956,93.82l0,187.641l-148.956,93.821l-148.955,-93.821l0,-187.641l148.955,-93.82Zm-119.788,109.92l0,155.442l119.788,75.45l119.789,-75.45l0,-155.442l-119.789,-75.45l-119.788,75.45Z" style="fill:#93928f;"/><path d="M1406.57,588.488l148.956,93.821l0,187.641l-148.956,93.82l-148.955,-93.82l0,-187.641l148.955,-93.821Z" style="fill:#5b6874;"/><path d="M1406.57,588.488l148.956,93.821l0,187.641l-148.956,93.82l-148.955,-93.82l0,-187.641l148.955,-93.821Zm-119.788,109.92l0,155.442l119.788,75.45l119.789,-75.45l0,-155.442l-119.789,-75.45l-119.788,75.45Z" style="fill:#93928f;"/><path d="M1406.57,2950.03l148.956,93.821l0,187.641l-148.956,93.82l-148.955,-93.82l0,-187.641l148.955,-93.821Z" style="fill:#5b6874;"/><path d="M1406.57,2950.03l148.956,93.821l0,187.641l-148.956,93.82l-148.955,-93.82l0,-187.641l148.955,-93.821Zm-119.788,109.92l0,155.443l119.788,75.449l119.789,-75.449l0,-155.443l-119.789,-75.45l-119.788,75.45Z" style="fill:#93928f;"/><path d="M1406.57,1767.86l148.956,93.821l0,187.641l-148.956,93.82l-148.955,-93.82l0,-187.641l148.955,-93.821Z" style="fill:#5b6874;"/><path d="M1406.57,1767.86l148.956,93.821l0,187.641l-148.956,93.82l-148.955,-93.82l0,-187.641l148.955,-93.821Zm-119.788,109.92l0,155.443l119.788,75.449l119.789,-75.449l0,-155.443l-119.789,-75.45l-119.788,75.45Z" style="fill:#93928f;"/><path d="M1563.49,295.314l148.955,93.82l0,187.641l-148.955,93.82l-148.955,-93.82l0,-187.641l148.955,-93.82Z" style="fill:#5b6874;"/><path d="M1563.49,295.314l148.955,93.82l0,187.641l-148.955,93.82l-148.955,-93.82l0,-187.641l148.955,-93.82Zm-119.789,109.919l0,155.443l119.789,75.449l119.788,-75.449l0,-155.443l-119.788,-75.449l-119.789,75.449Z" style="fill:#93928f;"/><path d="M1563.49,2656.86l148.955,93.82l0,187.641l-148.955,93.821l-148.955,-93.821l0,-187.641l148.955,-93.82Z" style="fill:#5b6874;"/><path d="M1563.49,2656.86l148.955,93.82l0,187.641l-148.955,93.821l-148.955,-93.821l0,-187.641l148.955,-93.82Zm-119.789,109.919l0,155.443l119.789,75.45l119.788,-75.45l0,-155.443l-119.788,-75.449l-119.789,75.449Z" style="fill:#93928f;"/><path d="M1563.49,1474.68l148.955,93.82l0,187.641l-148.955,93.821l-148.955,-93.821l0,-187.641l148.955,-93.82Z" style="fill:#5b6874;"/><path d="M1563.49,1474.68l148.955,93.82l0,187.641l-148.955,93.821l-148.955,-93.821l0,-187.641l148.955,-93.82Zm-119.789,109.919l0,155.443l119.789,75.45l119.788,-75.45l0,-155.443l-119.788,-75.449l-119.789,75.449Z" style="fill:#93928f;"/><path d="M1563.49,3836.23l148.955,93.82l0,187.641l-148.955,93.821l-148.955,-93.821l0,-187.641l148.955,-93.82Z" style="fill:#5b6874;"/><path d="M1563.49,3836.23l148.955,93.82l0,187.641l-148.955,93.821l-148.955,-93.821l0,-187.641l148.955,-93.82Zm-119.789,109.92l0,155.442l119.789,75.45l119.788,-75.45l0,-155.442l-119.788,-75.45l-119.789,75.45Z" style="fill:#93928f;"/><path d="M1563.49,883.802l148.955,93.821l0,187.64l-148.955,93.821l-148.955,-93.821l0,-187.64l148.955,-93.821Z" style="fill:#5b6874;"/><path d="M1563.49,883.802l148.955,93.821l0,187.64l-148.955,93.821l-148.955,-93.821l0,-187.64l148.955,-93.821Zm-119.789,109.92l0,155.442l119.789,75.45l119.788,-75.45l0,-155.442l-119.788,-75.45l-119.789,75.45Z" style="fill:#93928f;"/><path d="M1563.49,3245.35l148.955,93.821l0,187.641l-148.955,93.82l-148.955,-93.82l0,-187.641l148.955,-93.821Z" style="fill:#5b6874;"/><path d="M1563.49,3245.35l148.955,93.821l0,187.641l-148.955,93.82l-148.955,-93.82l0,-187.641l148.955,-93.821Zm-119.789,109.92l0,155.442l119.789,75.45l119.788,-75.45l0,-155.442l-119.788,-75.45l-119.789,75.45Z" style="fill:#93928f;"/><path d="M1563.49,2063.17l148.955,93.821l0,187.641l-148.955,93.82l-148.955,-93.82l0,-187.641l148.955,-93.821Z" style="fill:#5b6874;"/><path d="M1563.49,2063.17l148.955,93.821l0,187.641l-148.955,93.82l-148.955,-93.82l0,-187.641l148.955,-93.821Zm-119.789,109.92l0,155.442l119.789,75.45l119.788,-75.45l0,-155.442l-119.788,-75.45l-119.789,75.45Z" style="fill:#93928f;"/><path d="M1092.73,0l148.956,93.82l0,187.641l-148.956,93.821l-148.955,-93.821l0,-187.641l148.955,-93.82Z" style="fill:#5b6874;"/><path d="M1092.73,0l148.956,93.82l0,187.641l-148.956,93.821l-148.955,-93.821l0,-187.641l148.955,-93.82Zm-119.788,109.92l0,155.442l119.788,75.45l119.789,-75.45l0,-155.442l-119.789,-75.45l-119.788,75.45Z" style="fill:#93928f;"/><path d="M1092.73,2361.55l148.956,93.82l0,187.641l-148.956,93.821l-148.955,-93.821l0,-187.641l148.955,-93.82Z" style="fill:#5b6874;"/><path d="M1092.73,2361.55l148.956,93.82l0,187.641l-148.956,93.821l-148.955,-93.821l0,-187.641l148.955,-93.82Zm-119.788,109.92l0,155.442l119.788,75.45l119.789,-75.45l0,-155.442l-119.789,-75.45l-119.788,75.45Z" style="fill:#93928f;"/><path d="M1092.73,3540.92l148.956,93.821l0,187.64l-148.956,93.821l-148.955,-93.821l0,-187.64l148.955,-93.821Z" style="fill:#5b6874;"/><path d="M1092.73,3540.92l148.956,93.821l0,187.64l-148.956,93.821l-148.955,-93.821l0,-187.64l148.955,-93.821Zm-119.788,109.92l0,155.442l119.788,75.45l119.789,-75.45l0,-155.442l-119.789,-75.45l-119.788,75.45Z" style="fill:#93928f;"/><path d="M1092.73,588.488l148.956,93.821l0,187.641l-148.956,93.82l-148.955,-93.82l0,-187.641l148.955,-93.821Z" style="fill:#5b6874;"/><path d="M1092.73,588.488l148.956,93.821l0,187.641l-148.956,93.82l-148.955,-93.82l0,-187.641l148.955,-93.821Zm-119.788,109.92l0,155.442l119.788,75.45l119.789,-75.45l0,-155.442l-119.789,-75.45l-119.788,75.45Z" style="fill:#93928f;"/><path d="M1092.73,2950.03l148.956,93.821l0,187.641l-148.956,93.82l-148.955,-93.82l0,-187.641l148.955,-93.821Z" style="fill:#5b6874;"/><path d="M1092.73,2950.03l148.956,93.821l0,187.641l-148.956,93.82l-148.955,-93.82l0,-187.641l148.955,-93.821Zm-119.788,109.92l0,155.443l119.788,75.449l119.789,-75.449l0,-155.443l-119.789,-75.45l-119.788,75.45Z" style="fill:#93928f;"/><path d="M1092.73,1767.86l148.956,93.821l0,187.641l-148.956,93.82l-148.955,-93.82l0,-187.641l148.955,-93.821Z" style="fill:#5b6874;"/><path d="M1092.73,1767.86l148.956,93.821l0,187.641l-148.956,93.82l-148.955,-93.82l0,-187.641l148.955,-93.821Zm-119.788,109.92l0,155.443l119.788,75.449l119.789,-75.449l0,-155.443l-119.789,-75.45l-119.788,75.45Z" style="fill:#93928f;"/><path d="M1249.65,295.314l148.955,93.82l0,187.641l-148.955,93.82l-148.956,-93.82l0,-187.641l148.956,-93.82Z" style="fill:#5b6874;"/><path d="M1249.65,295.314l148.955,93.82l0,187.641l-148.955,93.82l-148.956,-93.82l0,-187.641l148.956,-93.82Zm-119.789,109.919l0,155.443l119.789,75.449l119.788,-75.449l0,-155.443l-119.788,-75.449l-119.789,75.449Z" style="fill:#93928f;"/><path d="M1249.65,2656.86l148.955,93.82l0,187.641l-148.955,93.821l-148.956,-93.821l0,-187.641l148.956,-93.82Z" style="fill:#5b6874;"/><path d="M1249.65,2656.86l148.955,93.82l0,187.641l-148.955,93.821l-148.956,-93.821l0,-187.641l148.956,-93.82Zm-119.789,109.919l0,155.443l119.789,75.45l119.788,-75.45l0,-155.443l-119.788,-75.449l-119.789,75.449Z" style="fill:#93928f;"/><path d="M1249.65,1474.68l148.955,93.82l0,187.641l-148.955,93.821l-148.956,-93.821l0,-187.641l148.956,-93.82Z" style="fill:#5b6874;"/><path d="M1249.65,1474.68l148.955,93.82l0,187.641l-148.955,93.821l-148.956,-93.821l0,-187.641l148.956,-93.82Zm-119.789,109.919l0,155.443l119.789,75.45l119.788,-75.45l0,-155.443l-119.788,-75.449l-119.789,75.449Z" style="fill:#93928f;"/><path d="M1249.65,3836.23l148.955,93.82l0,187.641l-148.955,93.821l-148.956,-93.821l0,-187.641l148.956,-93.82Z" style="fill:#5b6874;"/><path d="M1249.65,3836.23l148.955,93.82l0,187.641l-148.955,93.821l-148.956,-93.821l0,-187.641l148.956,-93.82Zm-119.789,109.92l0,155.442l119.789,75.45l119.788,-75.45l0,-155.442l-119.788,-75.45l-119.789,75.45Z" style="fill:#93928f;"/><path d="M1249.65,883.802l148.955,93.821l0,187.64l-148.955,93.821l-148.956,-93.821l0,-187.64l148.956,-93.821Z" style="fill:#5b6874;"/><path d="M1249.65,883.802l148.955,93.821l0,187.64l-148.955,93.821l-148.956,-93.821l0,-187.64l148.956,-93.821Zm-119.789,109.92l0,155.442l119.789,75.45l119.788,-75.45l0,-155.442l-119.788,-75.45l-119.789,75.45Z" style="fill:#93928f;"/><path d="M1249.65,3245.35l148.955,93.821l0,187.641l-148.955,93.82l-148.956,-93.82l0,-187.641l148.956,-93.821Z" style="fill:#5b6874;"/><path d="M1249.65,3245.35l148.955,93.821l0,187.641l-148.955,93.82l-148.956,-93.82l0,-187.641l148.956,-93.821Zm-119.789,109.92l0,155.442l119.789,75.45l119.788,-75.45l0,-155.442l-119.788,-75.45l-119.789,75.45Z" style="fill:#93928f;"/><path d="M1249.65,4424.72l148.955,93.821l0,187.641l-148.955,93.82l-148.956,-93.82l0,-187.641l148.956,-93.821Z" style="fill:#5b6874;"/><path d="M1249.65,4424.72l148.955,93.821l0,187.641l-148.955,93.82l-148.956,-93.82l0,-187.641l148.956,-93.821Zm-119.789,109.92l0,155.442l119.789,75.45l119.788,-75.45l0,-155.442l-119.788,-75.45l-119.789,75.45Z" style="fill:#93928f;"/><path d="M2664.18,2361.55l148.956,93.82l0,187.641l-148.956,93.821l-148.955,-93.821l0,-187.641l148.955,-93.82Z" style="fill:#5b6874;"/><path d="M2664.18,2361.55l148.956,93.82l0,187.641l-148.956,93.821l-148.955,-93.821l0,-187.641l148.955,-93.82Zm-119.788,109.92l0,155.442l119.788,75.45l119.789,-75.45l0,-155.442l-119.789,-75.45l-119.788,75.45Z" style="fill:#93928f;"/><path d="M2664.18,1179.37l148.956,93.82l0,187.641l-148.956,93.821l-148.955,-93.821l0,-187.641l148.955,-93.82Z" style="fill:#5b6874;"/><path d="M2664.18,1179.37l148.956,93.82l0,187.641l-148.956,93.821l-148.955,-93.821l0,-187.641l148.955,-93.82Zm-119.788,109.92l0,155.442l119.788,75.45l119.789,-75.45l0,-155.442l-119.789,-75.45l-119.788,75.45Z" style="fill:#93928f;"/><path d="M2664.18,588.488l148.956,93.821l0,187.641l-148.956,93.82l-148.955,-93.82l0,-187.641l148.955,-93.821Z" style="fill:#5b6874;"/><path d="M2664.18,588.488l148.956,93.821l0,187.641l-148.956,93.82l-148.955,-93.82l0,-187.641l148.955,-93.821Zm-119.788,109.92l0,155.442l119.788,75.45l119.789,-75.45l0,-155.442l-119.789,-75.45l-119.788,75.45Z" style="fill:#93928f;"/><path d="M2664.18,2950.03l148.956,93.821l0,187.641l-148.956,93.82l-148.955,-93.82l0,-187.641l148.955,-93.821Z" style="fill:#5b6874;"/><path d="M2664.18,2950.03l148.956,93.821l0,187.641l-148.956,93.82l-148.955,-93.82l0,-187.641l148.955,-93.821Zm-119.788,109.92l0,155.443l119.788,75.449l119.789,-75.449l0,-155.443l-119.789,-75.45l-119.788,75.45Z" style="fill:#93928f;"/><path d="M2664.18,4129.4l148.956,93.82l0,187.641l-148.956,93.82l-148.955,-93.82l0,-187.641l148.955,-93.82Z" style="fill:#5b6874;"/><path d="M2664.18,4129.4l148.956,93.82l0,187.641l-148.956,93.82l-148.955,-93.82l0,-187.641l148.955,-93.82Zm-119.788,109.919l0,155.443l119.788,75.449l119.789,-75.449l0,-155.443l-119.789,-75.449l-119.788,75.449Z" style="fill:#93928f;"/><path d="M2821.1,2656.86l148.955,93.82l0,187.641l-148.955,93.821l-148.955,-93.821l0,-187.641l148.955,-93.82Z" style="fill:#5b6874;"/><path d="M2821.1,2656.86l148.955,93.82l0,187.641l-148.955,93.821l-148.955,-93.821l0,-187.641l148.955,-93.82Zm-119.789,109.919l0,155.443l119.789,75.45l119.788,-75.45l0,-155.443l-119.788,-75.449l-119.789,75.449Z" style="fill:#93928f;"/><path d="M2821.1,3836.23l148.955,93.82l0,187.641l-148.955,93.821l-148.955,-93.821l0,-187.641l148.955,-93.82Z" style="fill:#5b6874;"/><path d="M2821.1,3836.23l148.955,93.82l0,187.641l-148.955,93.821l-148.955,-93.821l0,-187.641l148.955,-93.82Zm-119.789,109.92l0,155.442l119.789,75.45l119.788,-75.45l0,-155.442l-119.788,-75.45l-119.789,75.45Z" style="fill:#93928f;"/><path d="M2821.1,883.802l148.955,93.821l0,187.64l-148.955,93.821l-148.955,-93.821l0,-187.64l148.955,-93.821Z" style="fill:#5b6874;"/><path d="M2821.1,883.802l148.955,93.821l0,187.64l-148.955,93.821l-148.955,-93.821l0,-187.64l148.955,-93.821Zm-119.789,109.92l0,155.442l119.789,75.45l119.788,-75.45l0,-155.442l-119.788,-75.45l-119.789,75.45Z" style="fill:#93928f;"/><path d="M2350.35,0l148.956,93.82l0,187.641l-148.956,93.821l-148.955,-93.821l0,-187.641l148.955,-93.82Z" style="fill:#5b6874;"/><path d="M2350.35,0l148.956,93.82l0,187.641l-148.956,93.821l-148.955,-93.821l0,-187.641l148.955,-93.82Zm-119.788,109.92l0,155.442l119.788,75.45l119.789,-75.45l0,-155.442l-119.789,-75.45l-119.788,75.45Z" style="fill:#93928f;"/><path d="M2350.35,2361.55l148.956,93.82l0,187.641l-148.956,93.821l-148.955,-93.821l0,-187.641l148.955,-93.82Z" style="fill:#5b6874;"/><path d="M2350.35,2361.55l148.956,93.82l0,187.641l-148.956,93.821l-148.955,-93.821l0,-187.641l148.955,-93.82Zm-119.788,109.92l0,155.442l119.788,75.45l119.789,-75.45l0,-155.442l-119.789,-75.45l-119.788,75.45Z" style="fill:#93928f;"/><path d="M2350.35,1179.37l148.956,93.82l0,187.641l-148.956,93.821l-148.955,-93.821l0,-187.641l148.955,-93.82Z" style="fill:#5b6874;"/><path d="M2350.35,1179.37l148.956,93.82l0,187.641l-148.956,93.821l-148.955,-93.821l0,-187.641l148.955,-93.82Zm-119.788,109.92l0,155.442l119.788,75.45l119.789,-75.45l0,-155.442l-119.789,-75.45l-119.788,75.45Z" style="fill:#93928f;"/><path d="M2350.35,3540.92l148.956,93.821l0,187.64l-148.956,93.821l-148.955,-93.821l0,-187.64l148.955,-93.821Z" style="fill:#5b6874;"/><path d="M2350.35,3540.92l148.956,93.821l0,187.64l-148.956,93.821l-148.955,-93.821l0,-187.64l148.955,-93.821Zm-119.788,109.92l0,155.442l119.788,75.45l119.789,-75.45l0,-155.442l-119.789,-75.45l-119.788,75.45Z" style="fill:#93928f;"/><path d="M2350.35,588.488l148.956,93.821l0,187.641l-148.956,93.82l-148.955,-93.82l0,-187.641l148.955,-93.821Z" style="fill:#5b6874;"/><path d="M2350.35,588.488l148.956,93.821l0,187.641l-148.956,93.82l-148.955,-93.82l0,-187.641l148.955,-93.821Zm-119.788,109.92l0,155.442l119.788,75.45l119.789,-75.45l0,-155.442l-119.789,-75.45l-119.788,75.45Z" style="fill:#93928f;"/><path d="M2350.35,2950.03l148.956,93.821l0,187.641l-148.956,93.82l-148.955,-93.82l0,-187.641l148.955,-93.821Z" style="fill:#5b6874;"/><path d="M2350.35,2950.03l148.956,93.821l0,187.641l-148.956,93.82l-148.955,-93.82l0,-187.641l148.955,-93.821Zm-119.788,109.92l0,155.443l119.788,75.449l119.789,-75.449l0,-155.443l-119.789,-75.45l-119.788,75.45Z" style="fill:#93928f;"/><path d="M2350.35,1767.86l148.956,93.821l0,187.641l-148.956,93.82l-148.955,-93.82l0,-187.641l148.955,-93.821Z" style="fill:#5b6874;"/><path d="M2350.35,1767.86l148.956,93.821l0,187.641l-148.956,93.82l-148.955,-93.82l0,-187.641l148.955,-93.821Zm-119.788,109.92l0,155.443l119.788,75.449l119.789,-75.449l0,-155.443l-119.789,-75.45l-119.788,75.45Z" style="fill:#93928f;"/><path d="M2350.35,4129.4l148.956,93.82l0,187.641l-148.956,93.82l-148.955,-93.82l0,-187.641l148.955,-93.82Z" style="fill:#5b6874;"/><path d="M2350.35,4129.4l148.956,93.82l0,187.641l-148.956,93.82l-148.955,-93.82l0,-187.641l148.955,-93.82Zm-119.788,109.919l0,155.443l119.788,75.449l119.789,-75.449l0,-155.443l-119.789,-75.449l-119.788,75.449Z" style="fill:#93928f;"/><path d="M2507.27,295.314l148.955,93.82l0,187.641l-148.955,93.82l-148.956,-93.82l0,-187.641l148.956,-93.82Z" style="fill:#5b6874;"/><path d="M2507.27,295.314l148.955,93.82l0,187.641l-148.955,93.82l-148.956,-93.82l0,-187.641l148.956,-93.82Zm-119.789,109.919l0,155.443l119.789,75.449l119.788,-75.449l0,-155.443l-119.788,-75.449l-119.789,75.449Z" style="fill:#93928f;"/><path d="M2507.27,2656.86l148.955,93.82l0,187.641l-148.955,93.821l-148.956,-93.821l0,-187.641l148.956,-93.82Z" style="fill:#5b6874;"/><path d="M2507.27,2656.86l148.955,93.82l0,187.641l-148.955,93.821l-148.956,-93.821l0,-187.641l148.956,-93.82Zm-119.789,109.919l0,155.443l119.789,75.45l119.788,-75.45l0,-155.443l-119.788,-75.449l-119.789,75.449Z" style="fill:#93928f;"/><path d="M2507.27,1474.68l148.955,93.82l0,187.641l-148.955,93.821l-148.956,-93.821l0,-187.641l148.956,-93.82Z" style="fill:#5b6874;"/><path d="M2507.27,1474.68l148.955,93.82l0,187.641l-148.955,93.821l-148.956,-93.821l0,-187.641l148.956,-93.82Zm-119.789,109.919l0,155.443l119.789,75.45l119.788,-75.45l0,-155.443l-119.788,-75.449l-119.789,75.449Z" style="fill:#93928f;"/><path d="M2507.27,3836.23l148.955,93.82l0,187.641l-148.955,93.821l-148.956,-93.821l0,-187.641l148.956,-93.82Z" style="fill:#5b6874;"/><path d="M2507.27,3836.23l148.955,93.82l0,187.641l-148.955,93.821l-148.956,-93.821l0,-187.641l148.956,-93.82Zm-119.789,109.92l0,155.442l119.789,75.45l119.788,-75.45l0,-155.442l-119.788,-75.45l-119.789,75.45Z" style="fill:#93928f;"/><path d="M2507.27,883.802l148.955,93.821l0,187.64l-148.955,93.821l-148.956,-93.821l0,-187.64l148.956,-93.821Z" style="fill:#5b6874;"/><path d="M2507.27,883.802l148.955,93.821l0,187.64l-148.955,93.821l-148.956,-93.821l0,-187.64l148.956,-93.821Zm-119.789,109.92l0,155.442l119.789,75.45l119.788,-75.45l0,-155.442l-119.788,-75.45l-119.789,75.45Z" style="fill:#93928f;"/><path d="M2507.27,3245.35l148.955,93.821l0,187.641l-148.955,93.82l-148.956,-93.82l0,-187.641l148.956,-93.821Z" style="fill:#5b6874;"/><path d="M2507.27,3245.35l148.955,93.821l0,187.641l-148.955,93.82l-148.956,-93.82l0,-187.641l148.956,-93.821Zm-119.789,109.92l0,155.442l119.789,75.45l119.788,-75.45l0,-155.442l-119.788,-75.45l-119.789,75.45Z" style="fill:#93928f;"/><path d="M2507.27,2063.17l148.955,93.821l0,187.641l-148.955,93.82l-148.956,-93.82l0,-187.641l148.956,-93.821Z" style="fill:#5b6874;"/><path d="M2507.27,2063.17l148.955,93.821l0,187.641l-148.955,93.82l-148.956,-93.82l0,-187.641l148.956,-93.821Zm-119.789,109.92l0,155.442l119.789,75.45l119.788,-75.45l0,-155.442l-119.788,-75.45l-119.789,75.45Z" style="fill:#93928f;"/><path d="M2507.27,4424.72l148.955,93.821l0,187.641l-148.955,93.82l-148.956,-93.82l0,-187.641l148.956,-93.821Z" style="fill:#5b6874;"/><path d="M2507.27,4424.72l148.955,93.821l0,187.641l-148.955,93.82l-148.956,-93.82l0,-187.641l148.956,-93.821Zm-119.789,109.92l0,155.442l119.789,75.45l119.788,-75.45l0,-155.442l-119.788,-75.45l-119.789,75.45Z" style="fill:#93928f;"/><path d="M2036.51,0l148.955,93.82l0,187.641l-148.955,93.821l-148.955,-93.821l0,-187.641l148.955,-93.82Z" style="fill:#5b6874;"/><path d="M2036.51,0l148.955,93.82l0,187.641l-148.955,93.821l-148.955,-93.821l0,-187.641l148.955,-93.82Zm-119.788,109.92l0,155.442l119.788,75.45l119.789,-75.45l0,-155.442l-119.789,-75.45l-119.788,75.45Z" style="fill:#93928f;"/><path d="M2036.51,2361.55l148.955,93.82l0,187.641l-148.955,93.821l-148.955,-93.821l0,-187.641l148.955,-93.82Z" style="fill:#5b6874;"/><path d="M2036.51,2361.55l148.955,93.82l0,187.641l-148.955,93.821l-148.955,-93.821l0,-187.641l148.955,-93.82Zm-119.788,109.92l0,155.442l119.788,75.45l119.789,-75.45l0,-155.442l-119.789,-75.45l-119.788,75.45Z" style="fill:#93928f;"/><path d="M2036.51,1179.37l148.955,93.82l0,187.641l-148.955,93.821l-148.955,-93.821l0,-187.641l148.955,-93.82Z" style="fill:#5b6874;"/><path d="M2036.51,1179.37l148.955,93.82l0,187.641l-148.955,93.821l-148.955,-93.821l0,-187.641l148.955,-93.82Zm-119.788,109.92l0,155.442l119.788,75.45l119.789,-75.45l0,-155.442l-119.789,-75.45l-119.788,75.45Z" style="fill:#93928f;"/><path d="M2036.51,3540.92l148.955,93.821l0,187.64l-148.955,93.821l-148.955,-93.821l0,-187.64l148.955,-93.821Z" style="fill:#5b6874;"/><path d="M2036.51,3540.92l148.955,93.821l0,187.64l-148.955,93.821l-148.955,-93.821l0,-187.64l148.955,-93.821Zm-119.788,109.92l0,155.442l119.788,75.45l119.789,-75.45l0,-155.442l-119.789,-75.45l-119.788,75.45Z" style="fill:#93928f;"/><path d="M2036.51,588.488l148.955,93.821l0,187.641l-148.955,93.82l-148.955,-93.82l0,-187.641l148.955,-93.821Z" style="fill:#5b6874;"/><path d="M2036.51,588.488l148.955,93.821l0,187.641l-148.955,93.82l-148.955,-93.82l0,-187.641l148.955,-93.821Zm-119.788,109.92l0,155.442l119.788,75.45l119.789,-75.45l0,-155.442l-119.789,-75.45l-119.788,75.45Z" style="fill:#93928f;"/><path d="M2036.51,2950.03l148.955,93.821l0,187.641l-148.955,93.82l-148.955,-93.82l0,-187.641l148.955,-93.821Z" style="fill:#5b6874;"/><path d="M2036.51,2950.03l148.955,93.821l0,187.641l-148.955,93.82l-148.955,-93.82l0,-187.641l148.955,-93.821Zm-119.788,109.92l0,155.443l119.788,75.449l119.789,-75.449l0,-155.443l-119.789,-75.45l-119.788,75.45Z" style="fill:#93928f;"/><path d="M2036.51,4129.4l148.955,93.82l0,187.641l-148.955,93.82l-148.955,-93.82l0,-187.641l148.955,-93.82Z" style="fill:#5b6874;"/><path d="M2036.51,4129.4l148.955,93.82l0,187.641l-148.955,93.82l-148.955,-93.82l0,-187.641l148.955,-93.82Zm-119.788,109.919l0,155.443l119.788,75.449l119.789,-75.449l0,-155.443l-119.789,-75.449l-119.788,75.449Z" style="fill:#93928f;"/><path d="M2193.43,2656.86l148.955,93.82l0,187.641l-148.955,93.821l-148.956,-93.821l0,-187.641l148.956,-93.82Z" style="fill:#5b6874;"/><path d="M2193.43,2656.86l148.955,93.82l0,187.641l-148.955,93.821l-148.956,-93.821l0,-187.641l148.956,-93.82Zm-119.789,109.919l0,155.443l119.789,75.45l119.788,-75.45l0,-155.443l-119.788,-75.449l-119.789,75.449Z" style="fill:#93928f;"/><path d="M2193.43,1474.68l148.955,93.82l0,187.641l-148.955,93.821l-148.956,-93.821l0,-187.641l148.956,-93.82Z" style="fill:#5b6874;"/><path d="M2193.43,1474.68l148.955,93.82l0,187.641l-148.955,93.821l-148.956,-93.821l0,-187.641l148.956,-93.82Zm-119.789,109.919l0,155.443l119.789,75.45l119.788,-75.45l0,-155.443l-119.788,-75.449l-119.789,75.449Z" style="fill:#93928f;"/><path d="M2193.43,3836.23l148.955,93.82l0,187.641l-148.955,93.821l-148.956,-93.821l0,-187.641l148.956,-93.82Z" style="fill:#5b6874;"/><path d="M2193.43,3836.23l148.955,93.82l0,187.641l-148.955,93.821l-148.956,-93.821l0,-187.641l148.956,-93.82Zm-119.789,109.92l0,155.442l119.789,75.45l119.788,-75.45l0,-155.442l-119.788,-75.45l-119.789,75.45Z" style="fill:#93928f;"/><path d="M2193.43,887.619l148.955,93.82l0,187.641l-148.955,93.82l-148.956,-93.82l0,-187.641l148.956,-93.82Z" style="fill:#5b6874;"/><path d="M2193.43,887.619l148.955,93.82l0,187.641l-148.955,93.82l-148.956,-93.82l0,-187.641l148.956,-93.82Zm-119.789,109.919l0,155.443l119.789,75.449l119.788,-75.449l0,-155.443l-119.788,-75.449l-119.789,75.449Z" style="fill:#93928f;"/><path d="M2193.43,2063.17l148.955,93.821l0,187.641l-148.955,93.82l-148.956,-93.82l0,-187.641l148.956,-93.821Z" style="fill:#5b6874;"/><path d="M2193.43,2063.17l148.955,93.821l0,187.641l-148.955,93.82l-148.956,-93.82l0,-187.641l148.956,-93.821Zm-119.789,109.92l0,155.442l119.789,75.45l119.788,-75.45l0,-155.442l-119.788,-75.45l-119.789,75.45Z" style="fill:#93928f;"/><path d="M2193.43,4424.72l148.955,93.821l0,187.641l-148.955,93.82l-148.956,-93.82l0,-187.641l148.956,-93.821Z" style="fill:#5b6874;"/><path d="M2193.43,4424.72l148.955,93.821l0,187.641l-148.955,93.82l-148.956,-93.82l0,-187.641l148.956,-93.821Zm-119.789,109.92l0,155.442l119.789,75.45l119.788,-75.45l0,-155.442l-119.788,-75.45l-119.789,75.45Z" style="fill:#93928f;"/></svg>